# xmcd
#
# Track frame offsets:
#	150
#	13762
#	27532
#	41242
#	55972
#	68067
#	82017
#	92462
#	106757
#	122930
#
# Disc length: 1796
#
# Revision: 1
# Processed by: cddbd v1.5.1PL0 Copyright (c) Steve Scherf et al.
# Submitted via: dBpowerAMP V4.0
# Normalized: r0:DSETVAR1,TDELIM( - )
#
DISCID=8307020a
DTITLE=Various Artist - Country`s Greatest Hits 70s
DYEAR=1997
DGENRE=Country
TTITLE0=Willie Nelson/Leon Russell - Heartbreak Hotel
TTITLE1=Tanya Tucker - Blood Red and Goin` Down
TTITLE2=George Jones/Tammy Wynette - Golden Ring
TTITLE3=Johnny Cash/Waylon Jennings - Ain`t No Good Chain Gangs
TTITLE4=Moe Bandy - It`s A Cheatin` Situation
TTITLE5=Johnny Cash - Oney
TTITLE6=George Jones - Her Name Is
TTITLE7=Johnny Paycheck - I`m The Only Hell My Mama Ever Raised
TTITLE8=Charlie Rich - My Elusive Dreams
TTITLE9=Tammy Wynette - Till I Get It Right
EXTD=
EXTT0=
EXTT1=
EXTT2=
EXTT3=
EXTT4=
EXTT5=
EXTT6=
EXTT7=
EXTT8=
EXTT9=
PLAYORDER=
